<?xml version="1.0" encoding="utf-8"?>
<!-- Generator: Adobe Illustrator 25.1.0, SVG Export Plug-In . SVG Version: 6.00 Build 0)  -->
<svg version="1.1" id="master-artboard" xmlns="http://www.w3.org/2000/svg" xmlns:xlink="http://www.w3.org/1999/xlink" x="0px"
	 y="0px" viewBox="0 0 521.7 521.7" style="enable-background:new 0 0 521.7 521.7;" xml:space="preserve">
<style type="text/css">
	.st0{fill:#FFFFFF;}
	.st1{fill:#F7F7F7;}
	.st2{fill:#F0F0F0;}
	.st3{fill:#E6E6E6;}
</style>
<g>
	<path id="color_fill" class="st0" d="M0,0h521.7v521.7H0V0z"/>
	<g id="geometric_shape" transform="matrix(1, 0, 0, 1, 2.842170943040401e-14, 7.105427357601002e-15)">
		<path class="st0" d="M32.6,0l32.6,32.6l0,0V0H32.6z"/>
		<path class="st1" d="M65.2,0v32.6L97.8,0H65.2z"/>
		<path class="st0" d="M97.8,0l32.6,32.6l0,0V0H97.8z"/>
		<path class="st1" d="M130.5,0v32.6L163.1,0H130.5z"/>
		<path class="st1" d="M0,0v32.6L32.6,0H0z"/>
		<path class="st0" d="M163.1,0l32.6,32.6l0,0V0H163.1z"/>
		<path class="st1" d="M195.7,0v32.6L228.3,0H195.7z"/>
		<path class="st0" d="M228.3,0l32.6,32.6l0,0V0H228.3z"/>
		<path class="st1" d="M260.9,0v32.6L293.5,0H260.9z"/>
		<path class="st0" d="M293.5,0l32.6,32.6l0,0V0H293.5z"/>
		<path class="st1" d="M326.1,0v32.6L358.7,0H326.1z"/>
		<path class="st0" d="M358.7,0l32.6,32.6l0,0V0H358.7z"/>
		<path class="st1" d="M391.3,0v32.6L423.9,0H391.3z"/>
		<path class="st0" d="M423.9,0l32.6,32.6l0,0V0H423.9z"/>
		<path class="st1" d="M456.5,0v32.6L489.1,0H456.5z"/>
		<path class="st0" d="M489.1,0l32.6,32.6l0,0V0H489.1z"/>
		<path class="st2" d="M97.8,0v32.6h32.6L97.8,0z"/>
		<path class="st3" d="M97.8,0L97.8,0L65.2,32.6h32.6V0z"/>
		<path class="st0" d="M65.2,32.6l32.6,32.6l0,0V32.6H65.2z"/>
		<path class="st1" d="M97.8,32.6v32.6l32.6-32.6H97.8z"/>
		<path class="st2" d="M163.1,0v32.6h32.6L163.1,0z"/>
		<path class="st3" d="M163.1,0L163.1,0l-32.6,32.6h32.6V0z"/>
		<path class="st0" d="M130.5,32.6l32.6,32.6l0,0V32.6H130.5z"/>
		<path class="st1" d="M163.1,32.6v32.6l32.6-32.6H163.1z"/>
		<path class="st2" d="M32.6,0v32.6h32.6L32.6,0z"/>
		<path class="st3" d="M32.6,0L32.6,0L0,32.6h32.6V0z"/>
		<path class="st0" d="M0,32.6l32.6,32.6l0,0V32.6H0z"/>
		<path class="st1" d="M32.6,32.6v32.6l32.6-32.6H32.6z"/>
		<path class="st2" d="M228.3,0v32.6h32.6L228.3,0z"/>
		<path class="st3" d="M228.3,0L228.3,0l-32.6,32.6h32.6V0z"/>
		<path class="st0" d="M195.7,32.6l32.6,32.6l0,0V32.6H195.7z"/>
		<path class="st1" d="M228.3,32.6v32.6l32.6-32.6H228.3z"/>
		<path class="st2" d="M293.5,0v32.6h32.6L293.5,0z"/>
		<path class="st3" d="M293.5,0L293.5,0l-32.6,32.6h32.6V0z"/>
		<path class="st0" d="M260.9,32.6l32.6,32.6l0,0V32.6H260.9z"/>
		<path class="st1" d="M293.5,32.6v32.6l32.6-32.6H293.5z"/>
		<path class="st2" d="M358.7,0v32.6h32.6L358.7,0z"/>
		<path class="st3" d="M358.7,0L358.7,0l-32.6,32.6h32.6V0z"/>
		<path class="st0" d="M326.1,32.6l32.6,32.6l0,0V32.6H326.1z"/>
		<path class="st1" d="M358.7,32.6v32.6l32.6-32.6H358.7z"/>
		<path class="st2" d="M423.9,0v32.6h32.6L423.9,0z"/>
		<path class="st3" d="M423.9,0L423.9,0l-32.6,32.6h32.6V0z"/>
		<path class="st0" d="M391.3,32.6l32.6,32.6l0,0V32.6H391.3z"/>
		<path class="st1" d="M423.9,32.6v32.6l32.6-32.6H423.9z"/>
		<path class="st2" d="M489.1,0v32.6h32.6L489.1,0z"/>
		<path class="st3" d="M489.1,0L489.1,0l-32.6,32.6h32.6V0z"/>
		<path class="st0" d="M456.5,32.6l32.6,32.6l0,0V32.6H456.5z"/>
		<path class="st1" d="M489.1,32.6v32.6l32.6-32.6H489.1z"/>
		<path class="st2" d="M65.2,32.6v32.6h32.6L65.2,32.6z"/>
		<path class="st3" d="M65.2,32.6L65.2,32.6L32.6,65.2h32.6V32.6z"/>
		<path class="st0" d="M32.6,65.2l32.6,32.6l0,0V65.2H32.6z"/>
		<path class="st1" d="M65.2,65.2v32.6l32.6-32.6H65.2z"/>
		<path class="st2" d="M130.5,32.6v32.6h32.6L130.5,32.6z"/>
		<path class="st3" d="M130.5,32.6L130.5,32.6L97.8,65.2h32.6V32.6z"/>
		<path class="st0" d="M97.8,65.2l32.6,32.6l0,0V65.2H97.8z"/>
		<path class="st1" d="M130.5,65.2v32.6l32.6-32.6H130.5z"/>
		<path class="st2" d="M0,32.6v32.6h32.6L0,32.6z"/>
		<path class="st1" d="M0,65.2v32.6l32.6-32.6H0z"/>
		<path class="st2" d="M195.7,32.6v32.6h32.6L195.7,32.6z"/>
		<path class="st3" d="M195.7,32.6L195.7,32.6l-32.6,32.6h32.6V32.6z"/>
		<path class="st0" d="M163.1,65.2l32.6,32.6l0,0V65.2H163.1z"/>
		<path class="st1" d="M195.7,65.2v32.6l32.6-32.6H195.7z"/>
		<path class="st2" d="M260.9,32.6v32.6h32.6L260.9,32.6z"/>
		<path class="st3" d="M260.9,32.6L260.9,32.6l-32.6,32.6h32.6V32.6z"/>
		<path class="st0" d="M228.3,65.2l32.6,32.6l0,0V65.2H228.3z"/>
		<path class="st1" d="M260.9,65.2v32.6l32.6-32.6H260.9z"/>
		<path class="st2" d="M326.1,32.6v32.6h32.6L326.1,32.6z"/>
		<path class="st3" d="M326.1,32.6L326.1,32.6l-32.6,32.6h32.6V32.6z"/>
		<path class="st0" d="M293.5,65.2l32.6,32.6l0,0V65.2H293.5z"/>
		<path class="st1" d="M326.1,65.2v32.6l32.6-32.6H326.1z"/>
		<path class="st2" d="M391.3,32.6v32.6h32.6L391.3,32.6z"/>
		<path class="st3" d="M391.3,32.6L391.3,32.6l-32.6,32.6h32.6V32.6z"/>
		<path class="st0" d="M358.7,65.2l32.6,32.6l0,0V65.2H358.7z"/>
		<path class="st1" d="M391.3,65.2v32.6l32.6-32.6H391.3z"/>
		<path class="st2" d="M456.5,32.6v32.6h32.6L456.5,32.6z"/>
		<path class="st3" d="M456.5,32.6L456.5,32.6l-32.6,32.6h32.6V32.6z"/>
		<path class="st0" d="M423.9,65.2l32.6,32.6l0,0V65.2H423.9z"/>
		<path class="st1" d="M456.5,65.2v32.6l32.6-32.6H456.5z"/>
		<path class="st3" d="M521.7,32.6L521.7,32.6l-32.6,32.6h32.6V32.6z"/>
		<path class="st0" d="M489.1,65.2l32.6,32.6l0,0V65.2H489.1z"/>
		<path class="st2" d="M97.8,65.2v32.6h32.6L97.8,65.2z"/>
		<path class="st3" d="M97.8,65.2L97.8,65.2L65.2,97.8h32.6V65.2z"/>
		<path class="st0" d="M65.2,97.8l32.6,32.6l0,0V97.8H65.2z"/>
		<path class="st1" d="M97.8,97.8v32.6l32.6-32.6H97.8z"/>
		<path class="st2" d="M163.1,65.2v32.6h32.6L163.1,65.2z"/>
		<path class="st3" d="M163.1,65.2L163.1,65.2l-32.6,32.6h32.6V65.2z"/>
		<path class="st0" d="M130.5,97.8l32.6,32.6l0,0V97.8H130.5z"/>
		<path class="st1" d="M163.1,97.8v32.6l32.6-32.6H163.1z"/>
		<path class="st2" d="M32.6,65.2v32.6h32.6L32.6,65.2z"/>
		<path class="st3" d="M32.6,65.2L32.6,65.2L0,97.8h32.6V65.2z"/>
		<path class="st0" d="M0,97.8l32.6,32.6l0,0V97.8H0z"/>
		<path class="st1" d="M32.6,97.8v32.6l32.6-32.6H32.6z"/>
		<path class="st2" d="M228.3,65.2v32.6h32.6L228.3,65.2z"/>
		<path class="st3" d="M228.3,65.2L228.3,65.2l-32.6,32.6h32.6V65.2z"/>
		<path class="st0" d="M195.7,97.8l32.6,32.6l0,0V97.8H195.7z"/>
		<path class="st1" d="M228.3,97.8v32.6l32.6-32.6H228.3z"/>
		<path class="st2" d="M293.5,65.2v32.6h32.6L293.5,65.2z"/>
		<path class="st3" d="M293.5,65.2L293.5,65.2l-32.6,32.6h32.6V65.2z"/>
		<path class="st0" d="M260.9,97.8l32.6,32.6l0,0V97.8H260.9z"/>
		<path class="st1" d="M293.5,97.8v32.6l32.6-32.6H293.5z"/>
		<path class="st2" d="M358.7,65.2v32.6h32.6L358.7,65.2z"/>
		<path class="st3" d="M358.7,65.2L358.7,65.2l-32.6,32.6h32.6V65.2z"/>
		<path class="st0" d="M326.1,97.8l32.6,32.6l0,0V97.8H326.1z"/>
		<path class="st1" d="M358.7,97.8v32.6l32.6-32.6H358.7z"/>
		<path class="st2" d="M423.9,65.2v32.6h32.6L423.9,65.2z"/>
		<path class="st3" d="M423.9,65.2L423.9,65.2l-32.6,32.6h32.6V65.2z"/>
		<path class="st0" d="M391.3,97.8l32.6,32.6l0,0V97.8H391.3z"/>
		<path class="st1" d="M423.9,97.8v32.6l32.6-32.6H423.9z"/>
		<path class="st2" d="M489.1,65.2v32.6h32.6L489.1,65.2z"/>
		<path class="st3" d="M489.1,65.2L489.1,65.2l-32.6,32.6h32.6V65.2z"/>
		<path class="st0" d="M456.5,97.8l32.6,32.6l0,0V97.8H456.5z"/>
		<path class="st1" d="M489.1,97.8v32.6l32.6-32.6H489.1z"/>
		<path class="st2" d="M65.2,97.8v32.6h32.6L65.2,97.8z"/>
		<path class="st3" d="M65.2,97.8L65.2,97.8l-32.6,32.6h32.6V97.8z"/>
		<path class="st0" d="M32.6,130.4L65.2,163l0,0v-32.6H32.6z"/>
		<path class="st1" d="M65.2,130.4V163l32.6-32.6H65.2z"/>
		<path class="st2" d="M130.5,97.8v32.6h32.6L130.5,97.8z"/>
		<path class="st3" d="M130.5,97.8L130.5,97.8l-32.6,32.6h32.6V97.8z"/>
		<path class="st0" d="M97.8,130.4l32.6,32.6l0,0v-32.6H97.8z"/>
		<path class="st1" d="M130.5,130.4V163l32.6-32.6H130.5z"/>
		<path class="st2" d="M0,97.8v32.6h32.6L0,97.8z"/>
		<path class="st1" d="M0,130.4V163l32.6-32.6H0z"/>
		<path class="st2" d="M195.7,97.8v32.6h32.6L195.7,97.8z"/>
		<path class="st3" d="M195.7,97.8L195.7,97.8l-32.6,32.6h32.6V97.8z"/>
		<path class="st0" d="M163.1,130.4l32.6,32.6l0,0v-32.6H163.1z"/>
		<path class="st1" d="M195.7,130.4V163l32.6-32.6H195.7z"/>
		<path class="st2" d="M260.9,97.8v32.6h32.6L260.9,97.8z"/>
		<path class="st3" d="M260.9,97.8L260.9,97.8l-32.6,32.6h32.6V97.8z"/>
		<path class="st0" d="M228.3,130.4l32.6,32.6l0,0v-32.6H228.3z"/>
		<path class="st1" d="M260.9,130.4V163l32.6-32.6H260.9z"/>
		<path class="st2" d="M326.1,97.8v32.6h32.6L326.1,97.8z"/>
		<path class="st3" d="M326.1,97.8L326.1,97.8l-32.6,32.6h32.6V97.8z"/>
		<path class="st0" d="M293.5,130.4l32.6,32.6l0,0v-32.6H293.5z"/>
		<path class="st1" d="M326.1,130.4V163l32.6-32.6H326.1z"/>
		<path class="st2" d="M391.3,97.8v32.6h32.6L391.3,97.8z"/>
		<path class="st3" d="M391.3,97.8L391.3,97.8l-32.6,32.6h32.6V97.8z"/>
		<path class="st0" d="M358.7,130.4l32.6,32.6l0,0v-32.6H358.7z"/>
		<path class="st1" d="M391.3,130.4V163l32.6-32.6H391.3z"/>
		<path class="st2" d="M456.5,97.8v32.6h32.6L456.5,97.8z"/>
		<path class="st3" d="M456.5,97.8L456.5,97.8l-32.6,32.6h32.6V97.8z"/>
		<path class="st0" d="M423.9,130.4l32.6,32.6l0,0v-32.6H423.9z"/>
		<path class="st1" d="M456.5,130.4V163l32.6-32.6H456.5z"/>
		<path class="st3" d="M521.7,97.8L521.7,97.8l-32.6,32.6h32.6V97.8z"/>
		<path class="st0" d="M489.1,130.4l32.6,32.6l0,0v-32.6H489.1z"/>
		<path class="st2" d="M97.8,130.4V163h32.6L97.8,130.4z"/>
		<path class="st3" d="M97.8,130.4L97.8,130.4L65.2,163h32.6V130.4z"/>
		<path class="st0" d="M65.2,163l32.6,32.6l0,0V163H65.2z"/>
		<path class="st1" d="M97.8,163v32.6l32.6-32.6H97.8z"/>
		<path class="st2" d="M163.1,130.4V163h32.6L163.1,130.4z"/>
		<path class="st3" d="M163.1,130.4L163.1,130.4L130.5,163h32.6V130.4z"/>
		<path class="st0" d="M130.5,163l32.6,32.6l0,0V163H130.5z"/>
		<path class="st1" d="M163.1,163v32.6l32.6-32.6H163.1z"/>
		<path class="st2" d="M32.6,130.4V163h32.6L32.6,130.4z"/>
		<path class="st3" d="M32.6,130.4L32.6,130.4L0,163h32.6V130.4z"/>
		<path class="st0" d="M0,163l32.6,32.6l0,0V163H0z"/>
		<path class="st1" d="M32.6,163v32.6L65.2,163H32.6z"/>
		<path class="st2" d="M228.3,130.4V163h32.6L228.3,130.4z"/>
		<path class="st3" d="M228.3,130.4L228.3,130.4L195.7,163h32.6V130.4z"/>
		<path class="st0" d="M195.7,163l32.6,32.6l0,0V163H195.7z"/>
		<path class="st1" d="M228.3,163v32.6l32.6-32.6H228.3z"/>
		<path class="st2" d="M293.5,130.4V163h32.6L293.5,130.4z"/>
		<path class="st3" d="M293.5,130.4L293.5,130.4L260.9,163h32.6V130.4z"/>
		<path class="st0" d="M260.9,163l32.6,32.6l0,0V163H260.9z"/>
		<path class="st1" d="M293.5,163v32.6l32.6-32.6H293.5z"/>
		<path class="st2" d="M358.7,130.4V163h32.6L358.7,130.4z"/>
		<path class="st3" d="M358.7,130.4L358.7,130.4L326.1,163h32.6V130.4z"/>
		<path class="st0" d="M326.1,163l32.6,32.6l0,0V163H326.1z"/>
		<path class="st1" d="M358.7,163v32.6l32.6-32.6H358.7z"/>
		<path class="st2" d="M423.9,130.4V163h32.6L423.9,130.4z"/>
		<path class="st3" d="M423.9,130.4L423.9,130.4L391.3,163h32.6V130.4z"/>
		<path class="st0" d="M391.3,163l32.6,32.6l0,0V163H391.3z"/>
		<path class="st1" d="M423.9,163v32.6l32.6-32.6H423.9z"/>
		<path class="st2" d="M489.1,130.4V163h32.6L489.1,130.4z"/>
		<path class="st3" d="M489.1,130.4L489.1,130.4L456.5,163h32.6V130.4z"/>
		<path class="st0" d="M456.5,163l32.6,32.6l0,0V163H456.5z"/>
		<path class="st1" d="M489.1,163v32.6l32.6-32.6H489.1z"/>
		<path class="st2" d="M65.2,163v32.6h32.6L65.2,163z"/>
		<path class="st3" d="M65.2,163L65.2,163l-32.6,32.6h32.6V163z"/>
		<path class="st0" d="M32.6,195.6l32.6,32.6l0,0v-32.6H32.6z"/>
		<path class="st1" d="M65.2,195.6v32.6l32.6-32.6H65.2z"/>
		<path class="st2" d="M130.5,163v32.6h32.6L130.5,163z"/>
		<path class="st3" d="M130.5,163L130.5,163l-32.6,32.6h32.6V163z"/>
		<path class="st0" d="M97.8,195.6l32.6,32.6l0,0v-32.6H97.8z"/>
		<path class="st1" d="M130.5,195.6v32.6l32.6-32.6H130.5z"/>
		<path class="st2" d="M0,163v32.6h32.6L0,163z"/>
		<path class="st1" d="M0,195.6v32.6l32.6-32.6H0z"/>
		<path class="st2" d="M195.7,163v32.6h32.6L195.7,163z"/>
		<path class="st3" d="M195.7,163L195.7,163l-32.6,32.6h32.6V163z"/>
		<path class="st0" d="M163.1,195.6l32.6,32.6l0,0v-32.6H163.1z"/>
		<path class="st1" d="M195.7,195.6v32.6l32.6-32.6H195.7z"/>
		<path class="st2" d="M260.9,163v32.6h32.6L260.9,163z"/>
		<path class="st3" d="M260.9,163L260.9,163l-32.6,32.6h32.6V163z"/>
		<path class="st0" d="M228.3,195.6l32.6,32.6l0,0v-32.6H228.3z"/>
		<path class="st1" d="M260.9,195.6v32.6l32.6-32.6H260.9z"/>
		<path class="st2" d="M326.1,163v32.6h32.6L326.1,163z"/>
		<path class="st3" d="M326.1,163L326.1,163l-32.6,32.6h32.6V163z"/>
		<path class="st0" d="M293.5,195.6l32.6,32.6l0,0v-32.6H293.5z"/>
		<path class="st1" d="M326.1,195.6v32.6l32.6-32.6H326.1z"/>
		<path class="st2" d="M391.3,163v32.6h32.6L391.3,163z"/>
		<path class="st3" d="M391.3,163L391.3,163l-32.6,32.6h32.6V163z"/>
		<path class="st0" d="M358.7,195.6l32.6,32.6l0,0v-32.6H358.7z"/>
		<path class="st1" d="M391.3,195.6v32.6l32.6-32.6H391.3z"/>
		<path class="st2" d="M456.5,163v32.6h32.6L456.5,163z"/>
		<path class="st3" d="M456.5,163L456.5,163l-32.6,32.6h32.6V163z"/>
		<path class="st0" d="M423.9,195.6l32.6,32.6l0,0v-32.6H423.9z"/>
		<path class="st1" d="M456.5,195.6v32.6l32.6-32.6H456.5z"/>
		<path class="st3" d="M521.7,163L521.7,163l-32.6,32.6h32.6V163z"/>
		<path class="st0" d="M489.1,195.6l32.6,32.6l0,0v-32.6H489.1z"/>
		<path class="st2" d="M97.8,195.6v32.6h32.6L97.8,195.6z"/>
		<path class="st3" d="M97.8,195.6L97.8,195.6l-32.6,32.6h32.6V195.6z"/>
		<path class="st0" d="M65.2,228.2l32.6,32.6l0,0v-32.6H65.2z"/>
		<path class="st1" d="M97.8,228.2v32.6l32.6-32.6H97.8z"/>
		<path class="st2" d="M163.1,195.6v32.6h32.6L163.1,195.6z"/>
		<path class="st3" d="M163.1,195.6L163.1,195.6l-32.6,32.6h32.6V195.6z"/>
		<path class="st0" d="M130.5,228.2l32.6,32.6l0,0v-32.6H130.5z"/>
		<path class="st1" d="M163.1,228.2v32.6l32.6-32.6H163.1z"/>
		<path class="st2" d="M32.6,195.6v32.6h32.6L32.6,195.6z"/>
		<path class="st3" d="M32.6,195.6L32.6,195.6L0,228.2h32.6V195.6z"/>
		<path class="st0" d="M0,228.2l32.6,32.6l0,0v-32.6H0z"/>
		<path class="st1" d="M32.6,228.2v32.6l32.6-32.6H32.6z"/>
		<path class="st2" d="M228.3,195.6v32.6h32.6L228.3,195.6z"/>
		<path class="st3" d="M228.3,195.6L228.3,195.6l-32.6,32.6h32.6V195.6z"/>
		<path class="st0" d="M195.7,228.2l32.6,32.6l0,0v-32.6H195.7z"/>
		<path class="st1" d="M228.3,228.2v32.6l32.6-32.6H228.3z"/>
		<path class="st2" d="M293.5,195.6v32.6h32.6L293.5,195.6z"/>
		<path class="st3" d="M293.5,195.6L293.5,195.6l-32.6,32.6h32.6V195.6z"/>
		<path class="st0" d="M260.9,228.2l32.6,32.6l0,0v-32.6H260.9z"/>
		<path class="st1" d="M293.5,228.2v32.6l32.6-32.6H293.5z"/>
		<path class="st2" d="M358.7,195.6v32.6h32.6L358.7,195.6z"/>
		<path class="st3" d="M358.7,195.6L358.7,195.6l-32.6,32.6h32.6V195.6z"/>
		<path class="st0" d="M326.1,228.2l32.6,32.6l0,0v-32.6H326.1z"/>
		<path class="st1" d="M358.7,228.2v32.6l32.6-32.6H358.7z"/>
		<path class="st2" d="M423.9,195.6v32.6h32.6L423.9,195.6z"/>
		<path class="st3" d="M423.9,195.6L423.9,195.6l-32.6,32.6h32.6V195.6z"/>
		<path class="st0" d="M391.3,228.2l32.6,32.6l0,0v-32.6H391.3z"/>
		<path class="st1" d="M423.9,228.2v32.6l32.6-32.6H423.9z"/>
		<path class="st2" d="M489.1,195.6v32.6h32.6L489.1,195.6z"/>
		<path class="st3" d="M489.1,195.6L489.1,195.6l-32.6,32.6h32.6V195.6z"/>
		<path class="st0" d="M456.5,228.2l32.6,32.6l0,0v-32.6H456.5z"/>
		<path class="st1" d="M489.1,228.2v32.6l32.6-32.6H489.1z"/>
		<path class="st2" d="M65.2,228.2v32.6h32.6L65.2,228.2z"/>
		<path class="st3" d="M65.2,228.2L65.2,228.2l-32.6,32.6h32.6V228.2z"/>
		<path class="st0" d="M32.6,260.8l32.6,32.6l0,0v-32.6H32.6z"/>
		<path class="st1" d="M65.2,260.8v32.6l32.6-32.6H65.2z"/>
		<path class="st2" d="M130.5,228.2v32.6h32.6L130.5,228.2z"/>
		<path class="st3" d="M130.5,228.2L130.5,228.2l-32.6,32.6h32.6V228.2z"/>
		<path class="st0" d="M97.8,260.8l32.6,32.6l0,0v-32.6H97.8z"/>
		<path class="st1" d="M130.5,260.8v32.6l32.6-32.6H130.5z"/>
		<path class="st2" d="M0,228.2v32.6h32.6L0,228.2z"/>
		<path class="st1" d="M0,260.8v32.6l32.6-32.6H0z"/>
		<path class="st2" d="M195.7,228.2v32.6h32.6L195.7,228.2z"/>
		<path class="st3" d="M195.7,228.2L195.7,228.2l-32.6,32.6h32.6V228.2z"/>
		<path class="st0" d="M163.1,260.8l32.6,32.6l0,0v-32.6H163.1z"/>
		<path class="st1" d="M195.7,260.8v32.6l32.6-32.6H195.7z"/>
		<path class="st2" d="M260.9,228.2v32.6h32.6L260.9,228.2z"/>
		<path class="st3" d="M260.9,228.2L260.9,228.2l-32.6,32.6h32.6V228.2z"/>
		<path class="st0" d="M228.3,260.8l32.6,32.6l0,0v-32.6H228.3z"/>
		<path class="st1" d="M260.9,260.8v32.6l32.6-32.6H260.9z"/>
		<path class="st2" d="M326.1,228.2v32.6h32.6L326.1,228.2z"/>
		<path class="st3" d="M326.1,228.2L326.1,228.2l-32.6,32.6h32.6V228.2z"/>
		<path class="st0" d="M293.5,260.8l32.6,32.6l0,0v-32.6H293.5z"/>
		<path class="st1" d="M326.1,260.8v32.6l32.6-32.6H326.1z"/>
		<path class="st2" d="M391.3,228.2v32.6h32.6L391.3,228.2z"/>
		<path class="st3" d="M391.3,228.2L391.3,228.2l-32.6,32.6h32.6V228.2z"/>
		<path class="st0" d="M358.7,260.8l32.6,32.6l0,0v-32.6H358.7z"/>
		<path class="st1" d="M391.3,260.8v32.6l32.6-32.6H391.3z"/>
		<path class="st2" d="M456.5,228.2v32.6h32.6L456.5,228.2z"/>
		<path class="st3" d="M456.5,228.2L456.5,228.2l-32.6,32.6h32.6V228.2z"/>
		<path class="st0" d="M423.9,260.8l32.6,32.6l0,0v-32.6H423.9z"/>
		<path class="st1" d="M456.5,260.8v32.6l32.6-32.6H456.5z"/>
		<path class="st3" d="M521.7,228.2L521.7,228.2l-32.6,32.6h32.6V228.2z"/>
		<path class="st0" d="M489.1,260.8l32.6,32.6l0,0v-32.6H489.1z"/>
		<path class="st2" d="M97.8,260.8v32.6h32.6L97.8,260.8z"/>
		<path class="st3" d="M97.8,260.8L97.8,260.8l-32.6,32.6h32.6V260.8z"/>
		<path class="st0" d="M65.2,293.4L97.8,326l0,0v-32.6H65.2z"/>
		<path class="st1" d="M97.8,293.4V326l32.6-32.6H97.8z"/>
		<path class="st2" d="M163.1,260.8v32.6h32.6L163.1,260.8z"/>
		<path class="st3" d="M163.1,260.8L163.1,260.8l-32.6,32.6h32.6V260.8z"/>
		<path class="st0" d="M130.5,293.4l32.6,32.6l0,0v-32.6H130.5z"/>
		<path class="st1" d="M163.1,293.4V326l32.6-32.6H163.1z"/>
		<path class="st2" d="M32.6,260.8v32.6h32.6L32.6,260.8z"/>
		<path class="st3" d="M32.6,260.8L32.6,260.8L0,293.4h32.6V260.8z"/>
		<path class="st0" d="M0,293.4L32.6,326l0,0v-32.6H0z"/>
		<path class="st1" d="M32.6,293.4V326l32.6-32.6H32.6z"/>
		<path class="st2" d="M228.3,260.8v32.6h32.6L228.3,260.8z"/>
		<path class="st3" d="M228.3,260.8L228.3,260.8l-32.6,32.6h32.6V260.8z"/>
		<path class="st0" d="M195.7,293.4l32.6,32.6l0,0v-32.6H195.7z"/>
		<path class="st1" d="M228.3,293.4V326l32.6-32.6H228.3z"/>
		<path class="st2" d="M293.5,260.8v32.6h32.6L293.5,260.8z"/>
		<path class="st3" d="M293.5,260.8L293.5,260.8l-32.6,32.6h32.6V260.8z"/>
		<path class="st0" d="M260.9,293.4l32.6,32.6l0,0v-32.6H260.9z"/>
		<path class="st1" d="M293.5,293.4V326l32.6-32.6H293.5z"/>
		<path class="st2" d="M358.7,260.8v32.6h32.6L358.7,260.8z"/>
		<path class="st3" d="M358.7,260.8L358.7,260.8l-32.6,32.6h32.6V260.8z"/>
		<path class="st0" d="M326.1,293.4l32.6,32.6l0,0v-32.6H326.1z"/>
		<path class="st1" d="M358.7,293.4V326l32.6-32.6H358.7z"/>
		<path class="st2" d="M423.9,260.8v32.6h32.6L423.9,260.8z"/>
		<path class="st3" d="M423.9,260.8L423.9,260.8l-32.6,32.6h32.6V260.8z"/>
		<path class="st0" d="M391.3,293.4l32.6,32.6l0,0v-32.6H391.3z"/>
		<path class="st1" d="M423.9,293.4V326l32.6-32.6H423.9z"/>
		<path class="st2" d="M489.1,260.8v32.6h32.6L489.1,260.8z"/>
		<path class="st3" d="M489.1,260.8L489.1,260.8l-32.6,32.6h32.6V260.8z"/>
		<path class="st0" d="M456.5,293.4l32.6,32.6l0,0v-32.6H456.5z"/>
		<path class="st1" d="M489.1,293.4V326l32.6-32.6H489.1z"/>
		<path class="st2" d="M65.2,293.4V326h32.6L65.2,293.4z"/>
		<path class="st3" d="M65.2,293.4L65.2,293.4L32.6,326h32.6V293.4z"/>
		<path class="st0" d="M32.6,326l32.6,32.6l0,0V326H32.6z"/>
		<path class="st1" d="M65.2,326v32.6L97.8,326H65.2z"/>
		<path class="st2" d="M130.5,293.4V326h32.6L130.5,293.4z"/>
		<path class="st3" d="M130.5,293.4L130.5,293.4L97.8,326h32.6V293.4z"/>
		<path class="st0" d="M97.8,326l32.6,32.6l0,0V326H97.8z"/>
		<path class="st1" d="M130.5,326v32.6l32.6-32.6H130.5z"/>
		<path class="st2" d="M0,293.4V326h32.6L0,293.4z"/>
		<path class="st1" d="M0,326v32.6L32.6,326H0z"/>
		<path class="st2" d="M195.7,293.4V326h32.6L195.7,293.4z"/>
		<path class="st3" d="M195.7,293.4L195.7,293.4L163.1,326h32.6V293.4z"/>
		<path class="st0" d="M163.1,326l32.6,32.6l0,0V326H163.1z"/>
		<path class="st1" d="M195.7,326v32.6l32.6-32.6H195.7z"/>
		<path class="st2" d="M260.9,293.4V326h32.6L260.9,293.4z"/>
		<path class="st3" d="M260.9,293.4L260.9,293.4L228.3,326h32.6V293.4z"/>
		<path class="st0" d="M228.3,326l32.6,32.6l0,0V326H228.3z"/>
		<path class="st1" d="M260.9,326v32.6l32.6-32.6H260.9z"/>
		<path class="st2" d="M326.1,293.4V326h32.6L326.1,293.4z"/>
		<path class="st3" d="M326.1,293.4L326.1,293.4L293.5,326h32.6V293.4z"/>
		<path class="st0" d="M293.5,326l32.6,32.6l0,0V326H293.5z"/>
		<path class="st1" d="M326.1,326v32.6l32.6-32.6H326.1z"/>
		<path class="st2" d="M391.3,293.4V326h32.6L391.3,293.4z"/>
		<path class="st3" d="M391.3,293.4L391.3,293.4L358.7,326h32.6V293.4z"/>
		<path class="st0" d="M358.7,326l32.6,32.6l0,0V326H358.7z"/>
		<path class="st1" d="M391.3,326v32.6l32.6-32.6H391.3z"/>
		<path class="st2" d="M456.5,293.4V326h32.6L456.5,293.4z"/>
		<path class="st3" d="M456.5,293.4L456.5,293.4L423.9,326h32.6V293.4z"/>
		<path class="st0" d="M423.9,326l32.6,32.6l0,0V326H423.9z"/>
		<path class="st1" d="M456.5,326v32.6l32.6-32.6H456.5z"/>
		<path class="st3" d="M521.7,293.4L521.7,293.4L489.1,326h32.6V293.4z"/>
		<path class="st0" d="M489.1,326l32.6,32.6l0,0V326H489.1z"/>
		<path class="st2" d="M97.8,326v32.6h32.6L97.8,326z"/>
		<path class="st3" d="M97.8,326L97.8,326l-32.6,32.6h32.6V326z"/>
		<path class="st0" d="M65.2,358.6l32.6,32.6l0,0v-32.6H65.2z"/>
		<path class="st1" d="M97.8,358.6v32.6l32.6-32.6H97.8z"/>
		<path class="st2" d="M163.1,326v32.6h32.6L163.1,326z"/>
		<path class="st3" d="M163.1,326L163.1,326l-32.6,32.6h32.6V326z"/>
		<path class="st0" d="M130.5,358.6l32.6,32.6l0,0v-32.6H130.5z"/>
		<path class="st1" d="M163.1,358.6v32.6l32.6-32.6H163.1z"/>
		<path class="st2" d="M32.6,326v32.6h32.6L32.6,326z"/>
		<path class="st3" d="M32.6,326L32.6,326L0,358.6h32.6V326z"/>
		<path class="st0" d="M0,358.6l32.6,32.6l0,0v-32.6H0z"/>
		<path class="st1" d="M32.6,358.6v32.6l32.6-32.6H32.6z"/>
		<path class="st2" d="M228.3,326v32.6h32.6L228.3,326z"/>
		<path class="st3" d="M228.3,326L228.3,326l-32.6,32.6h32.6V326z"/>
		<path class="st0" d="M195.7,358.6l32.6,32.6l0,0v-32.6H195.7z"/>
		<path class="st1" d="M228.3,358.6v32.6l32.6-32.6H228.3z"/>
		<path class="st2" d="M293.5,326v32.6h32.6L293.5,326z"/>
		<path class="st3" d="M293.5,326L293.5,326l-32.6,32.6h32.6V326z"/>
		<path class="st0" d="M260.9,358.6l32.6,32.6l0,0v-32.6H260.9z"/>
		<path class="st1" d="M293.5,358.6v32.6l32.6-32.6H293.5z"/>
		<path class="st2" d="M358.7,326v32.6h32.6L358.7,326z"/>
		<path class="st3" d="M358.7,326L358.7,326l-32.6,32.6h32.6V326z"/>
		<path class="st0" d="M326.1,358.6l32.6,32.6l0,0v-32.6H326.1z"/>
		<path class="st1" d="M358.7,358.6v32.6l32.6-32.6H358.7z"/>
		<path class="st2" d="M423.9,326v32.6h32.6L423.9,326z"/>
		<path class="st3" d="M423.9,326L423.9,326l-32.6,32.6h32.6V326z"/>
		<path class="st0" d="M391.3,358.6l32.6,32.6l0,0v-32.6H391.3z"/>
		<path class="st1" d="M423.9,358.6v32.6l32.6-32.6H423.9z"/>
		<path class="st2" d="M489.1,326v32.6h32.6L489.1,326z"/>
		<path class="st3" d="M489.1,326L489.1,326l-32.6,32.6h32.6V326z"/>
		<path class="st0" d="M456.5,358.6l32.6,32.6l0,0v-32.6H456.5z"/>
		<path class="st1" d="M489.1,358.6v32.6l32.6-32.6H489.1z"/>
		<path class="st2" d="M65.2,358.6v32.6h32.6L65.2,358.6z"/>
		<path class="st3" d="M65.2,358.6L65.2,358.6l-32.6,32.6h32.6V358.6z"/>
		<path class="st0" d="M32.6,391.2l32.6,32.6l0,0v-32.6H32.6z"/>
		<path class="st1" d="M65.2,391.2v32.6l32.6-32.6H65.2z"/>
		<path class="st2" d="M130.5,358.6v32.6h32.6L130.5,358.6z"/>
		<path class="st3" d="M130.5,358.6L130.5,358.6l-32.6,32.6h32.6V358.6z"/>
		<path class="st0" d="M97.8,391.2l32.6,32.6l0,0v-32.6H97.8z"/>
		<path class="st1" d="M130.5,391.2v32.6l32.6-32.6H130.5z"/>
		<path class="st2" d="M0,358.6v32.6h32.6L0,358.6z"/>
		<path class="st1" d="M0,391.2v32.6l32.6-32.6H0z"/>
		<path class="st2" d="M195.7,358.6v32.6h32.6L195.7,358.6z"/>
		<path class="st3" d="M195.7,358.6L195.7,358.6l-32.6,32.6h32.6V358.6z"/>
		<path class="st0" d="M163.1,391.2l32.6,32.6l0,0v-32.6H163.1z"/>
		<path class="st1" d="M195.7,391.2v32.6l32.6-32.6H195.7z"/>
		<path class="st2" d="M260.9,358.6v32.6h32.6L260.9,358.6z"/>
		<path class="st3" d="M260.9,358.6L260.9,358.6l-32.6,32.6h32.6V358.6z"/>
		<path class="st0" d="M228.3,391.2l32.6,32.6l0,0v-32.6H228.3z"/>
		<path class="st1" d="M260.9,391.2v32.6l32.6-32.6H260.9z"/>
		<path class="st2" d="M326.1,358.6v32.6h32.6L326.1,358.6z"/>
		<path class="st3" d="M326.1,358.6L326.1,358.6l-32.6,32.6h32.6V358.6z"/>
		<path class="st0" d="M293.5,391.2l32.6,32.6l0,0v-32.6H293.5z"/>
		<path class="st1" d="M326.1,391.2v32.6l32.6-32.6H326.1z"/>
		<path class="st2" d="M391.3,358.6v32.6h32.6L391.3,358.6z"/>
		<path class="st3" d="M391.3,358.6L391.3,358.6l-32.6,32.6h32.6V358.6z"/>
		<path class="st0" d="M358.7,391.2l32.6,32.6l0,0v-32.6H358.7z"/>
		<path class="st1" d="M391.3,391.2v32.6l32.6-32.6H391.3z"/>
		<path class="st2" d="M456.5,358.6v32.6h32.6L456.5,358.6z"/>
		<path class="st3" d="M456.5,358.6L456.5,358.6l-32.6,32.6h32.6V358.6z"/>
		<path class="st0" d="M423.9,391.2l32.6,32.6l0,0v-32.6H423.9z"/>
		<path class="st1" d="M456.5,391.2v32.6l32.6-32.6H456.5z"/>
		<path class="st3" d="M521.7,358.6L521.7,358.6l-32.6,32.6h32.6V358.6z"/>
		<path class="st0" d="M489.1,391.2l32.6,32.6l0,0v-32.6H489.1z"/>
		<path class="st2" d="M97.8,391.2v32.6h32.6L97.8,391.2z"/>
		<path class="st3" d="M97.8,391.2L97.8,391.2l-32.6,32.6h32.6V391.2z"/>
		<path class="st0" d="M65.2,423.8l32.6,32.6l0,0v-32.6H65.2z"/>
		<path class="st1" d="M97.8,423.8v32.6l32.6-32.6H97.8z"/>
		<path class="st2" d="M163.1,391.2v32.6h32.6L163.1,391.2z"/>
		<path class="st3" d="M163.1,391.2L163.1,391.2l-32.6,32.6h32.6V391.2z"/>
		<path class="st0" d="M130.5,423.8l32.6,32.6l0,0v-32.6H130.5z"/>
		<path class="st1" d="M163.1,423.8v32.6l32.6-32.6H163.1z"/>
		<path class="st2" d="M32.6,391.2v32.6h32.6L32.6,391.2z"/>
		<path class="st3" d="M32.6,391.2L32.6,391.2L0,423.8h32.6V391.2z"/>
		<path class="st0" d="M0,423.8l32.6,32.6l0,0v-32.6H0z"/>
		<path class="st1" d="M32.6,423.8v32.6l32.6-32.6H32.6z"/>
		<path class="st2" d="M228.3,391.2v32.6h32.6L228.3,391.2z"/>
		<path class="st3" d="M228.3,391.2L228.3,391.2l-32.6,32.6h32.6V391.2z"/>
		<path class="st0" d="M195.7,423.8l32.6,32.6l0,0v-32.6H195.7z"/>
		<path class="st1" d="M228.3,423.8v32.6l32.6-32.6H228.3z"/>
		<path class="st2" d="M293.5,391.2v32.6h32.6L293.5,391.2z"/>
		<path class="st3" d="M293.5,391.2L293.5,391.2l-32.6,32.6h32.6V391.2z"/>
		<path class="st0" d="M260.9,423.8l32.6,32.6l0,0v-32.6H260.9z"/>
		<path class="st1" d="M293.5,423.8v32.6l32.6-32.6H293.5z"/>
		<path class="st2" d="M358.7,391.2v32.6h32.6L358.7,391.2z"/>
		<path class="st3" d="M358.7,391.2L358.7,391.2l-32.6,32.6h32.6V391.2z"/>
		<path class="st0" d="M326.1,423.8l32.6,32.6l0,0v-32.6H326.1z"/>
		<path class="st1" d="M358.7,423.8v32.6l32.6-32.6H358.7z"/>
		<path class="st2" d="M423.9,391.2v32.6h32.6L423.9,391.2z"/>
		<path class="st3" d="M423.9,391.2L423.9,391.2l-32.6,32.6h32.6V391.2z"/>
		<path class="st0" d="M391.3,423.8l32.6,32.6l0,0v-32.6H391.3z"/>
		<path class="st1" d="M423.9,423.8v32.6l32.6-32.6H423.9z"/>
		<path class="st2" d="M489.1,391.2v32.6h32.6L489.1,391.2z"/>
		<path class="st3" d="M489.1,391.2L489.1,391.2l-32.6,32.6h32.6V391.2z"/>
		<path class="st0" d="M456.5,423.8l32.6,32.6l0,0v-32.6H456.5z"/>
		<path class="st1" d="M489.1,423.8v32.6l32.6-32.6H489.1z"/>
		<path class="st2" d="M65.2,423.8v32.6h32.6L65.2,423.8z"/>
		<path class="st3" d="M65.2,423.8L65.2,423.8l-32.6,32.6h32.6V423.8z"/>
		<path class="st0" d="M32.6,456.5l32.6,32.6l0,0v-32.6H32.6z"/>
		<path class="st1" d="M65.2,456.5v32.6l32.6-32.6H65.2z"/>
		<path class="st2" d="M130.5,423.8v32.6h32.6L130.5,423.8z"/>
		<path class="st3" d="M130.5,423.8L130.5,423.8l-32.6,32.6h32.6V423.8z"/>
		<path class="st0" d="M97.8,456.5l32.6,32.6l0,0v-32.6H97.8z"/>
		<path class="st1" d="M130.5,456.5v32.6l32.6-32.6H130.5z"/>
		<path class="st2" d="M0,423.8v32.6h32.6L0,423.8z"/>
		<path class="st1" d="M0,456.5v32.6l32.6-32.6H0z"/>
		<path class="st2" d="M195.7,423.8v32.6h32.6L195.7,423.8z"/>
		<path class="st3" d="M195.7,423.8L195.7,423.8l-32.6,32.6h32.6V423.8z"/>
		<path class="st0" d="M163.1,456.5l32.6,32.6l0,0v-32.6H163.1z"/>
		<path class="st1" d="M195.7,456.5v32.6l32.6-32.6H195.7z"/>
		<path class="st2" d="M260.9,423.8v32.6h32.6L260.9,423.8z"/>
		<path class="st3" d="M260.9,423.8L260.9,423.8l-32.6,32.6h32.6V423.8z"/>
		<path class="st0" d="M228.3,456.5l32.6,32.6l0,0v-32.6H228.3z"/>
		<path class="st1" d="M260.9,456.5v32.6l32.6-32.6H260.9z"/>
		<path class="st2" d="M326.1,423.8v32.6h32.6L326.1,423.8z"/>
		<path class="st3" d="M326.1,423.8L326.1,423.8l-32.6,32.6h32.6V423.8z"/>
		<path class="st0" d="M293.5,456.5l32.6,32.6l0,0v-32.6H293.5z"/>
		<path class="st1" d="M326.1,456.5v32.6l32.6-32.6H326.1z"/>
		<path class="st2" d="M391.3,423.8v32.6h32.6L391.3,423.8z"/>
		<path class="st3" d="M391.3,423.8L391.3,423.8l-32.6,32.6h32.6V423.8z"/>
		<path class="st0" d="M358.7,456.5l32.6,32.6l0,0v-32.6H358.7z"/>
		<path class="st1" d="M391.3,456.5v32.6l32.6-32.6H391.3z"/>
		<path class="st2" d="M456.5,423.8v32.6h32.6L456.5,423.8z"/>
		<path class="st3" d="M456.5,423.8L456.5,423.8l-32.6,32.6h32.6V423.8z"/>
		<path class="st0" d="M423.9,456.5l32.6,32.6l0,0v-32.6H423.9z"/>
		<path class="st1" d="M456.5,456.5v32.6l32.6-32.6H456.5z"/>
		<path class="st3" d="M521.7,423.8L521.7,423.8l-32.6,32.6h32.6V423.8z"/>
		<path class="st0" d="M489.1,456.5l32.6,32.6l0,0v-32.6H489.1z"/>
		<path class="st2" d="M97.8,456.5v32.6h32.6L97.8,456.5z"/>
		<path class="st3" d="M97.8,456.5L97.8,456.5l-32.6,32.6h32.6V456.5z"/>
		<path class="st0" d="M65.2,489.1l32.6,32.6l0,0v-32.6H65.2z"/>
		<path class="st1" d="M97.8,489.1v32.6l32.6-32.6H97.8z"/>
		<path class="st2" d="M163.1,456.5v32.6h32.6L163.1,456.5z"/>
		<path class="st3" d="M163.1,456.5L163.1,456.5l-32.6,32.6h32.6V456.5z"/>
		<path class="st0" d="M130.5,489.1l32.6,32.6l0,0v-32.6H130.5z"/>
		<path class="st1" d="M163.1,489.1v32.6l32.6-32.6H163.1z"/>
		<path class="st2" d="M32.6,456.5v32.6h32.6L32.6,456.5z"/>
		<path class="st3" d="M32.6,456.5L32.6,456.5L0,489.1h32.6V456.5z"/>
		<path class="st0" d="M0,489.1l32.6,32.6l0,0v-32.6H0z"/>
		<path class="st1" d="M32.6,489.1v32.6l32.6-32.6H32.6z"/>
		<path class="st2" d="M228.3,456.5v32.6h32.6L228.3,456.5z"/>
		<path class="st3" d="M228.3,456.5L228.3,456.5l-32.6,32.6h32.6V456.5z"/>
		<path class="st0" d="M195.7,489.1l32.6,32.6l0,0v-32.6H195.7z"/>
		<path class="st1" d="M228.3,489.1v32.6l32.6-32.6H228.3z"/>
		<path class="st2" d="M293.5,456.5v32.6h32.6L293.5,456.5z"/>
		<path class="st3" d="M293.5,456.5L293.5,456.5l-32.6,32.6h32.6V456.5z"/>
		<path class="st0" d="M260.9,489.1l32.6,32.6l0,0v-32.6H260.9z"/>
		<path class="st1" d="M293.5,489.1v32.6l32.6-32.6H293.5z"/>
		<path class="st2" d="M358.7,456.5v32.6h32.6L358.7,456.5z"/>
		<path class="st3" d="M358.7,456.5L358.7,456.5l-32.6,32.6h32.6V456.5z"/>
		<path class="st0" d="M326.1,489.1l32.6,32.6l0,0v-32.6H326.1z"/>
		<path class="st1" d="M358.7,489.1v32.6l32.6-32.6H358.7z"/>
		<path class="st2" d="M423.9,456.5v32.6h32.6L423.9,456.5z"/>
		<path class="st3" d="M423.9,456.5L423.9,456.5l-32.6,32.6h32.6V456.5z"/>
		<path class="st0" d="M391.3,489.1l32.6,32.6l0,0v-32.6H391.3z"/>
		<path class="st1" d="M423.9,489.1v32.6l32.6-32.6H423.9z"/>
		<path class="st2" d="M489.1,456.5v32.6h32.6L489.1,456.5z"/>
		<path class="st3" d="M489.1,456.5L489.1,456.5l-32.6,32.6h32.6V456.5z"/>
		<path class="st0" d="M456.5,489.1l32.6,32.6l0,0v-32.6H456.5z"/>
		<path class="st1" d="M489.1,489.1v32.6l32.6-32.6H489.1z"/>
		<path class="st2" d="M65.2,489.1v32.6h32.6L65.2,489.1z"/>
		<path class="st3" d="M65.2,489.1L65.2,489.1l-32.6,32.6h32.6V489.1z"/>
		<path class="st2" d="M130.5,489.1v32.6h32.6L130.5,489.1z"/>
		<path class="st3" d="M130.5,489.1L130.5,489.1l-32.6,32.6h32.6V489.1z"/>
		<path class="st2" d="M0,489.1v32.6h32.6L0,489.1z"/>
		<path class="st2" d="M195.7,489.1v32.6h32.6L195.7,489.1z"/>
		<path class="st3" d="M195.7,489.1L195.7,489.1l-32.6,32.6h32.6V489.1z"/>
		<path class="st2" d="M260.9,489.1v32.6h32.6L260.9,489.1z"/>
		<path class="st3" d="M260.9,489.1L260.9,489.1l-32.6,32.6h32.6V489.1z"/>
		<path class="st2" d="M326.1,489.1v32.6h32.6L326.1,489.1z"/>
		<path class="st3" d="M326.1,489.1L326.1,489.1l-32.6,32.6h32.6V489.1z"/>
		<path class="st2" d="M391.3,489.1v32.6h32.6L391.3,489.1z"/>
		<path class="st3" d="M391.3,489.1L391.3,489.1l-32.6,32.6h32.6V489.1z"/>
		<path class="st2" d="M456.5,489.1v32.6h32.6L456.5,489.1z"/>
		<path class="st3" d="M456.5,489.1L456.5,489.1l-32.6,32.6h32.6V489.1z"/>
		<path class="st3" d="M521.7,489.1L521.7,489.1l-32.6,32.6h32.6V489.1z"/>
	</g>
	<path class="st0" d="M504.7,504.7c-2.7,2.7-5.4,5.5-8,8.3c-2.6,2.8-5.2,5.7-7.6,8.6c3-2.5,5.9-5,8.6-7.6c2.8-2.6,5.6-5.3,8.3-8
		s5.4-5.5,8-8.3c2.6-2.8,5.2-5.7,7.6-8.7c-3,2.5-5.8,5-8.7,7.6C510.2,499.3,507.5,502,504.7,504.7z"/>
	<path class="st0" d="M17,17c2.7-2.7,5.4-5.5,8-8.3C27.6,5.9,30.2,3,32.6,0c-3,2.5-5.9,5-8.7,7.6s-5.6,5.3-8.3,8s-5.4,5.5-8,8.3
		c-2.6,2.8-5.1,5.7-7.6,8.6c3-2.5,5.9-5,8.6-7.6C11.5,22.4,14.3,19.7,17,17z"/>
	<path class="st0" d="M521.7,32.6L491,63l-1.5,1.5c-1.3-1.3-2.6-2.6-3.9-3.9l-12.2-12.3l-12.3-12.2c-1.3-1.3-2.6-2.6-3.9-3.9
		l1.5-1.5L489.1,0l-30.7,30.4l-1.5,1.5c-2.7-2.6-5.4-5.3-8-7.9c-8.2-8-16.5-16.1-25-23.9c7.9,8.4,15.9,16.7,23.9,25
		c2.6,2.7,5.3,5.4,7.9,8l-28.1,27.8l-3.5,3.4l-3.8-3.7c-6.8-6.7-13.6-13.5-20.5-20.3c-2.7-2.6-5.3-5.3-8-7.9l5.6-5.7L423.9,0
		l-26.7,26.3l-5.7,5.6c-4.1-4-8.1-7.9-12.1-11.9L369,10l-5.2-5l-5.2-5l5,5.2l5,5.2l10,10.3c3.9,4.1,7.9,8.1,11.9,12.1l-20,19.8
		l-11.7,11.6l-0.7-0.7l-7.2-7.1l-24.4-24.1l9.8-9.9l11.1-11.3L358.7,0l-11.3,11.1l-11.3,11.1l-9.9,9.8l-3.9-3.8l-14.4-14.1l-7.2-7
		l-7.2-7l7,7.2l7,7.2l14.1,14.4l3.8,3.8l-12,11.8l-20,19.8l-28.3-28l-3.8-3.8l13.9-14.1l9.1-9.2l9.1-9.2l-9.3,9.1l-9.2,9.1L260.9,32
		l-14.1-13.9l-9.2-9.1L228.3,0l9.1,9.3l9.1,9.2l13.9,14.1l-3.8,3.8l-28.3,28l-20-19.8l-12-11.8l3.8-3.8l14.1-14.4l7-7.2l7.1-7.3
		L221,7l-7.2,7l-14.4,14.1l-3.9,3.8l-9.9-9.8l-11.3-11.1L163.1,0l11.1,11.3l11.1,11.3l9.8,9.9l-24.4,24.1l-7.2,7.1l-0.7,0.7
		l-11.7-11.6l-20-19.8c4-4,7.9-8.1,11.9-12.1l10-10.3l5-5.2l5-5.2l-5.2,5l-5.2,5l-10.3,10c-4.1,3.9-8.1,7.9-12.1,11.9l-5.7-5.6
		L97.8,0l26.3,26.7l5.6,5.7c-2.7,2.6-5.3,5.3-8,7.9c-6.9,6.7-13.7,13.5-20.5,20.3l-3.8,3.7L94,60.8L66,33c2.6-2.7,5.3-5.3,7.9-8
		c8-8.2,16.1-16.5,23.9-25c-8.4,7.9-16.7,15.9-25,23.9c-2.7,2.6-5.4,5.3-8,7.9l-1.5-1.5L32.6,0L63,30.7l1.5,1.5
		c-1.3,1.3-2.6,2.6-3.9,3.9L48.3,48.3L36.1,60.5c-1.3,1.3-2.6,2.6-3.9,3.9L30.8,63L0,32.6l30.4,30.7l1.5,1.5c-2.6,2.7-5.3,5.4-7.9,8
		c-8,8.2-16.1,16.5-24,25c8.4-7.9,16.7-15.9,25-24c2.7-2.6,5.4-5.3,8-7.9L60.8,94l3.4,3.5l-3.7,3.8c-6.7,6.8-13.5,13.6-20.3,20.5
		c-2.6,2.7-5.3,5.3-7.9,8l-5.7-5.6L0,97.8l26.3,26.7l5.6,5.7c-4,4.1-7.9,8.1-11.9,12.1l-10,10.3l-5,5.2L0,163l5.2-5l5.2-5l10.3-10
		c4.1-3.9,8.1-7.9,12.1-11.9l19.8,20l11.6,11.7c-2.6,2.6-5.2,5.2-7.8,7.8L32.5,195l-9.9-9.8l-11.3-11.1L0,163l11.1,11.3l11.1,11.3
		l9.8,9.9l-3.8,3.9l-14.1,14.4l-7,7.2l-7,7.2l7.2-7l7.2-7L28.9,200l3.8-3.8l11.8,12l19.8,20l-28,28.3l-3.8,3.8l-14.1-13.9l-9.2-9.1
		L0,228.2l9.1,9.3l9.1,9.2l13.9,14.1l-13.9,14.1l-9.1,9.2L0,293.4l9.3-9.1l9.2-9.1l14.1-13.9l3.8,3.8l28,28.3l-19.8,20l-11.8,12
		l-3.9-3.8l-14.4-14.1l-7.2-7L0,293.4l7,7.2l7,7.2l14.1,14.4l3.8,3.9l-9.8,9.9L0,358.6l22.6-22.2l9.9-9.8L56.6,351l7.1,7.2l0.7,0.7
		l-11.6,11.7l-19.8,20c-4-4-8.1-7.9-12.1-11.9l-10.3-10l-5.2-5l-5.2-5l5,5.2l5,5.2l10,10.3c3.9,4.1,7.9,8.1,11.9,12.1l-5.6,5.7
		L0,423.8l26.7-26.3l5.7-5.6c2.6,2.7,5.3,5.3,7.9,8c6.7,6.9,13.5,13.7,20.3,20.5l3.7,3.8l-3.4,3.5l-27.8,28.1
		c-2.7-2.6-5.4-5.3-8-7.9c-8.2-8-16.5-16.1-25-23.9c7.9,8.4,15.9,16.7,23.9,25c2.6,2.7,5.3,5.4,7.9,8l-1.5,1.5L0,489.1l30.7-30.4
		l1.5-1.5c1.3,1.3,2.6,2.6,3.9,3.9l12.2,12.3l12.3,12.2c1.3,1.3,2.6,2.6,3.9,3.9l-1.5,1.5l-30.4,30.8l30.7-30.4l1.5-1.5
		c2.7,2.6,5.4,5.3,8,7.9c8.2,8,16.5,16.1,25,24c-7.9-8.4-15.9-16.7-24-25c-2.6-2.7-5.3-5.4-7.9-8L94,460.8l3.5-3.4l3.8,3.7
		c6.8,6.7,13.6,13.5,20.5,20.3c2.7,2.6,5.3,5.3,8,7.9l-5.6,5.7l-26.3,26.7l26.7-26.3l5.7-5.6c4.1,4,8.1,7.9,12.1,11.9l10.3,10l5.2,5
		l5.2,5l0,0l22.6-22.2l9.9-9.8l3.9,3.8l14.4,14.1l7.2,7l7.2,7l-7-7.2l-7-7.2l-14.1-14.4l-3.8-3.9l12-11.8l20-19.8l28.3,28l3.8,3.8
		l-13.9,14.1l-9.1,9.2l-9.1,9.3l9.3-9.1l9.2-9.1l14-13.9l14.1,13.9l9.2,9.1l9.3,9.1l-9.1-9.3l-9.1-9.2L261.5,489l3.8-3.8l28.3-28
		l20,19.8l12,11.8l-3.8,3.9l-14.1,14.4l-7,7.2l-7,7.2l7.2-7l7.2-7l14.4-14.1l3.9-3.8l9.9,9.8l22.6,22.2L336.5,499l-9.8-9.9
		l24.4-24.1c2.6-2.6,5.2-5.1,7.8-7.8l11.7,11.6l20,19.8c-4,4-7.9,8.1-11.9,12.1l-10,10.3l-5,5.2l-5,5.2l5.2-5l5.2-5l10.3-10
		c4.1-3.9,8.1-7.9,12.1-11.9l5.7,5.6l26.7,26.3l-26.3-26.7l-5.6-5.7c2.7-2.6,5.3-5.3,8-7.9c6.9-6.7,13.7-13.5,20.5-20.3l3.8-3.7
		l3.5,3.4l28.1,27.8c-2.6,2.7-5.3,5.4-7.9,8c-8,8.2-16.1,16.5-24,25c8.4-7.9,16.7-15.9,25-24c2.7-2.6,5.4-5.3,8-7.9l1.5,1.5
		l30.7,30.4l-30.4-30.7l-1.5-1.5c1.3-1.3,2.6-2.6,3.9-3.9l12.3-12.2l12.2-12.3c1.3-1.3,2.6-2.6,3.9-3.9l1.5,1.5l30.7,30.4
		l-30.4-30.7l-1.5-1.5c2.6-2.7,5.3-5.4,7.9-8c8-8.2,16.1-16.5,23.9-25c-8.4,7.9-16.7,15.9-25,23.9c-2.7,2.6-5.4,5.3-8,7.9
		l-27.8-28.1l-3.4-3.5l3.7-3.8c6.7-6.8,13.5-13.6,20.3-20.5c2.6-2.7,5.3-5.3,7.9-8l5.7,5.6l26.7,26.3l-26.3-26.7l-5.6-5.7
		c4-4.1,7.9-8.1,11.9-12.1l10-10.3l5-5.2l5-5.2l0,0l-22.2-22.6l-9.8-9.9l3.8-3.9l14.1-14.4l7-7.2l7-7.2l-7.2,7l-7.2,7l-14.4,14.1
		l-3.9,3.8l-11.8-12l-19.8-20l28-28.3l3.8-3.8l14.1,13.9l9.2,9.1l9.3,9.1l-9.1-9.3l-9.1-9.2l-13.9-13.9l13.9-14.1l9.1-9.2l9.1-9.3
		l-9.3,9.1l-9.2,9.1l-14.1,13.9l-3.8-3.8l-28-28.3l19.8-20l11.8-12l3.8,3.8l14.4,14.1l7.2,7l7.2,7l-7-7.2l-7-7.2l-14.1-14.4
		l-3.8-3.9l9.8-9.9l11.1-11.3l11.1-11.3l-11.3,11.1L499,185.2l-9.9,9.8l-24.1-24.4c-2.6-2.6-5.1-5.2-7.8-7.8l11.6-11.7l19.8-20
		c4,4,8.1,7.9,12.1,11.9l10.3,10l5.2,5l5.2,5l-5-5.2l-5-5.2l-10-10.3c-3.9-4.1-7.9-8.1-11.9-12.1l5.6-5.7l26.3-26.7l-26.7,26.3
		l-5.7,5.6c-2.6-2.7-5.3-5.3-7.9-8c-6.7-6.9-13.5-13.7-20.3-20.5l-3.7-3.8l3.4-3.5l27.8-28.1c2.7,2.6,5.4,5.3,8,7.9
		c8.2,8,16.5,16.1,25,24c-7.9-8.4-15.9-16.7-24-25c-2.6-2.7-5.3-5.4-7.9-8l1.5-1.5L521.7,32.6z M371.2,53.3l19.8-20
		c2.6,2.7,5.3,5.3,7.9,8c6.7,6.9,13.5,13.7,20.3,20.5l3.7,3.7l-31.4,31.2L379.7,85l-14.3-14.2l-5.8-5.7L371.2,53.3z M406.9,406.9
		l-15.8,15.9l-23.7-23.9l-7.5-7.5l15.8-15.8l15.8-15.8l7.5,7.5l23.9,23.7L406.9,406.9z M424.1,392.3l31.4,31.2l-16,15.9l-15.9,16
		l-31.2-31.4l15.9-15.8L424.1,392.3z M114.8,406.9l-15.9-15.8l23.9-23.7l7.5-7.5l15.8,15.8l15.8,15.8l-7.5,7.5l-23.7,23.9
		L114.8,406.9z M129.4,424.1l-31.2,31.4l-15.9-16l-16-15.9l31.4-31.2l15.8,15.9L129.4,424.1z M114.8,114.8l15.8-15.9l23.7,23.9
		l7.5,7.5l-15.8,15.8l-15.8,15.8l-7.5-7.5l-23.9-23.7L114.8,114.8z M97.6,129.3L66.2,98.1l16-15.9l15.9-16l31.2,31.4l-15.9,15.8
		L97.6,129.3z M337.7,110.7l19.8,19.9l-31.4,31.3l-28-27.9l-3.5-3.5l23.8-23.9l7.5-7.6L337.7,110.7z M327.2,97.7l31.3-31.6l5.7,5.8
		l14.2,14.3L390.2,98l-23.9,23.7l-7.5,7.5l-19.9-19.8L327.2,97.7z M341.7,341.7L326,357.4l-19.7-19.8L294.7,326l15.7-15.6l15.6-15.7
		l11.6,11.6l19.8,19.7L341.7,341.7z M358.8,327.3l31.4,31.3l-15.8,15.8l-15.8,15.8l-31.3-31.4L343,343L358.8,327.3z M180,341.7
		L164.3,326l19.8-19.7l11.6-11.6l15.6,15.7L227,326l-11.6,11.6l-19.7,19.8L180,341.7z M194.4,358.7l-31.3,31.4l-15.8-15.8
		l-15.8-15.8l31.4-31.3l15.7,15.7L194.4,358.7z M180,180l15.7-15.7l19.7,19.8l11.6,11.6l-15.7,15.6L195.7,227l-11.6-11.6l-19.8-19.7
		L180,180z M163,194.4l-31.4-31.3l15.8-15.8l15.8-15.8l31.3,31.4l-15.7,15.7L163,194.4z M292.2,195.6l-31.3,31.3l-31.3-31.3
		l31.3-31.4L292.2,195.6z M262.1,163l3.4-3.5l27.8-28l3.5,3.5l27.9,27.9L305,182.7l-11.6,11.6L262.1,163z M276.5,276.5l-15.6,15.6
		l-15.6-15.6l-15.6-15.6l15.6-15.6l15.6-15.6l15.6,15.6l15.6,15.6L276.5,276.5z M293.5,262.1l31.3,31.3l-15.7,15.6l-15.6,15.7
		l-31.3-31.3l15.6-15.6L293.5,262.1z M259.6,293.4l-31.3,31.3l-15.6-15.7l-15.7-15.6l31.3-31.3l15.6,15.6L259.6,293.4z M228.3,259.5
		l-31.3-31.3l15.7-15.6l15.6-15.7l31.3,31.3l-15.6,15.6L228.3,259.5z M277.8,243.9l-15.6-15.6l31.3-31.3l15.6,15.7l15.7,15.6
		l-31.3,31.3L277.8,243.9z M228.3,194.4l-11.6-11.6l-19.8-19.7l27.9-27.9l3.5-3.5l27.8,28l3.4,3.5L228.3,194.4z M182.8,216.6
		l11.6,11.6l-31.3,31.4l-3.5-3.5l-28-27.8c1.2-1.2,2.3-2.3,3.5-3.5l28-27.9L182.8,216.6z M195.7,229.5l31.3,31.3l-31.3,31.3
		l-31.3-31.3L195.7,229.5z M194.4,293.4L182.8,305l-19.7,19.8l-28-27.9l-3.5-3.5l28-27.8l3.5-3.4L194.4,293.4z M216.7,338.9
		l11.6-11.6l31.4,31.3l-3.5,3.5l-27.8,28c-1.2-1.2-2.3-2.3-3.5-3.5l-27.9-28L216.7,338.9z M229.5,326l31.3-31.3l31.3,31.3
		l-31.3,31.3L229.5,326z M293.5,327.3l11.6,11.6l19.8,19.7l-27.9,28c-1.2,1.2-2.3,2.3-3.5,3.5l-27.8-28l-3.5-3.5L293.5,327.3z
		 M338.9,305l-11.6-11.6l31.3-31.4l3.5,3.4l28,27.8l-3.5,3.5l-28,27.9L338.9,305z M326.1,292.2l-31.3-31.3l31.3-31.3l31.4,31.3
		L326.1,292.2z M327.3,228.2l11.6-11.6l19.7-19.8l28,27.9c1.2,1.2,2.3,2.3,3.5,3.5l-28,27.8l-3.5,3.5L327.3,228.2z M337.7,215.4
		L326.1,227l-15.6-15.7l-15.7-15.6l11.6-11.6l19.7-19.8l15.7,15.7l15.7,15.7L337.7,215.4z M343,178.7l-15.7-15.7l31.3-31.4
		l15.8,15.8l15.8,15.8l-31.4,31.3L343,178.7z M317.4,105.4l-23.9,23.8l-17.8-17.7l-13.8-13.7l7.6-7.6l23.9-24.1l7.7,7.8l18.3,18.4
		L325,98L317.4,105.4z M274.5,112.6l17.7,17.8l-28,27.8l-3.5,3.5l-3.5-3.5l-28-27.8l17.7-17.8l13.7-13.8L274.5,112.6z M246,111.5
		l-17.8,17.7l-23.9-23.8l-7.6-7.5l5.6-5.7l18.3-18.4l7.7-7.8l23.9,24.1l7.6,7.6L246,111.5z M203.3,106.5l23.8,23.9l-3.5,3.5
		l-28,27.9l-31.4-31.3l19.8-19.9l11.7-11.8L203.3,106.5z M182.8,109.4l-19.9,19.8l-7.5-7.5L131.5,98l11.8-11.8l14.2-14.3l5.7-5.8
		l31.3,31.6L182.8,109.4z M121.8,155.4l7.5,7.5l-19.8,19.9c-3.9,3.9-7.8,7.9-11.7,11.8l-31.6-31.3c6.7-6.6,13.4-13.3,20.1-19.9
		l11.8-11.8L121.8,155.4z M110.7,184l19.9-19.8l31.3,31.4l-27.9,28c-1.2,1.2-2.3,2.3-3.5,3.5l-23.9-23.8l-7.6-7.5
		C102.8,191.8,106.8,187.9,110.7,184z M105.5,204.3l23.8,23.9c-10.5,10.5-21,21.1-31.4,31.6l-7.6-7.6l-24.1-23.9l7.8-7.7
		c8-7.9,16.1-15.9,24.1-23.9L105.5,204.3z M130.5,229.4l27.9,28l3.5,3.5l-3.5,3.5l-27.8,28l-17.8-17.7l-13.8-13.7
		C109.5,250.4,120,239.9,130.5,229.4z M111.5,275.7l17.7,17.8l-23.8,23.9L98,325l-5.7-5.7l-18.4-18.3l-7.8-7.7l24.1-23.9
		c2.5-2.5,5.1-5.1,7.6-7.6L111.5,275.7z M106.5,318.4l23.9-23.8l3.5,3.5l27.9,28l-31.3,31.4l-19.8-19.9l-11.8-11.7L106.5,318.4z
		 M109.4,338.9l19.8,19.9l-7.5,7.5l-23.7,23.9l-11.8-11.8L72,364.2l-5.8-5.7l31.6-31.3L109.4,338.9z M155.4,399.9l7.5-7.5l19.9,19.8
		c3.9,3.9,7.9,7.8,11.8,11.7l-31.3,31.6c-6.6-6.7-13.3-13.4-19.9-20.1l-11.8-11.8L155.4,399.9z M184.1,411l-19.8-19.9l31.4-31.3
		l28,27.9c1.2,1.2,2.3,2.3,3.5,3.5l-23.8,23.9l-7.5,7.6C191.9,418.9,187.9,414.9,184.1,411z M204.3,416.2l23.9-23.8
		c10.5,10.5,21.1,21,31.6,31.4c-2.5,2.5-5.1,5.1-7.6,7.6l-23.9,24.1l-7.7-7.8c-7.9-8-15.9-16.1-23.9-24.1L204.3,416.2z M229.4,391.2
		l28-27.9l3.5-3.5l3.5,3.5l28,27.9c-10.5,10.5-21,21.1-31.4,31.6C250.4,412.2,239.9,401.7,229.4,391.2z M293.5,392.4l23.9,23.8
		l7.6,7.5c-8,8-15.9,16-23.9,24.1l-7.7,7.8l-23.9-24.1c-2.5-2.5-5.1-5.1-7.6-7.6C272.5,413.4,283,402.9,293.5,392.4z M318.4,415.2
		l-23.8-23.9c1.2-1.2,2.3-2.3,3.5-3.5l28-27.9l31.4,31.3L337.7,411c-3.9,3.9-7.8,7.9-11.7,11.8L318.4,415.2z M338.9,412.3l19.9-19.8
		l7.5,7.5l23.9,23.7l-11.8,11.8c-6.6,6.7-13.3,13.4-19.9,20.1L327.2,424C331.1,420,335,416.1,338.9,412.3z M399.9,366.3l-7.5-7.5
		l19.8-19.9l11.7-11.8l31.6,31.3l-5.8,5.7l-14.3,14.2l-11.8,11.8L399.9,366.3z M411,337.6l-19.9,19.8l-31.3-31.4l27.9-28l3.5-3.5
		l23.9,23.8l7.6,7.5L411,337.6z M416.2,317.4l-23.8-23.9l17.7-17.8l13.7-13.8c2.5,2.5,5.1,5.1,7.6,7.6l24.1,23.9l-7.8,7.7
		l-18.4,18.3l-5.7,5.6L416.2,317.4z M409.1,274.5l-17.8,17.7l-27.8-28l-3.5-3.5l3.5-3.5l27.9-28c10.5,10.5,21.1,21,31.6,31.4
		L409.1,274.5z M392.4,228.2l23.8-23.9l7.5-7.6c8,8,16,15.9,24.1,23.9l7.8,7.7l-24.1,23.9l-7.6,7.6
		C413.4,249.2,402.9,238.7,392.4,228.2z M415.2,203.3L391.4,227c-1.2-1.2-2.3-2.3-3.5-3.5l-27.9-28l31.3-31.4l19.9,19.8
		c3.9,3.9,7.9,7.8,11.8,11.7L415.2,203.3z M412.3,182.8l-19.8-19.9l7.5-7.5l23.7-23.9l11.8,11.8c6.7,6.6,13.4,13.3,20.1,19.9
		L424,194.5C420.1,190.6,416.2,186.7,412.3,182.8z M398.9,154.4l-7.5,7.5l-15.8-15.8l-15.8-15.8l7.5-7.5l23.7-23.9l15.9,15.9
		l15.9,15.8L398.9,154.4z M408.2,113.5l-15.9-15.8l31.2-31.4l15.9,16l16,15.9l-31.4,31.2L408.2,113.5z M314.2,45.2l11.8-12
		l24.1,24.4l7.1,7.2l0.6,0.7l-31.6,31.3l-5.7-5.6l-18.4-18.3l-7.8-7.7L314.2,45.2z M257.1,37l3.8-3.8l3.8,3.8l28,28.2l-24.1,23.9
		l-7.7,7.6l-7.6-7.6l-24.1-23.9L257.1,37z M164.6,64.7l7.1-7.2l24.1-24.4l11.8,12l19.8,20l-7.8,7.7l-18.4,18.3l-5.7,5.6L164,65.4
		L164.6,64.7z M102.5,61.7c6.7-6.8,13.5-13.6,20.3-20.5c2.6-2.6,5.3-5.3,7.9-8l19.8,20L162.1,65l-5.8,5.7L142,85l-11.8,11.8
		L98.8,65.5L102.5,61.7z M61.5,93.4L33.4,65.6c1.3-1.3,2.6-2.6,3.9-3.9l12.3-12.2l12.2-12.3c1.3-1.3,2.6-2.6,3.9-3.9l27.8,28.1
		l3.4,3.5l-16,15.9l-15.9,16L61.5,93.4z M53.4,150.5l-20-19.8c2.7-2.6,5.3-5.3,8-7.9c6.9-6.7,13.7-13.5,20.5-20.3l3.8-3.7l31.3,31.4
		L85,142c-6.6,6.7-13.3,13.4-19.9,20.1L53.4,150.5z M45.2,207.5l-12-11.8l24.4-24.1c2.6-2.6,5.2-5.1,7.8-7.8l31.3,31.6
		c-8,8-15.9,16-23.9,24.1l-7.7,7.8L45.2,207.5z M37,264.6l-3.8-3.8l3.8-3.8l28.2-28l23.9,24.1l7.6,7.6c-2.5,2.5-5.1,5.1-7.6,7.6
		l-23.9,24.1L37,264.6z M64.8,357.1l-7.2-7.1l-24.4-24.1l12-11.8l20-19.8l7.7,7.8l18.3,18.4l5.6,5.7l-31.3,31.6L64.8,357.1z
		 M61.8,419.2c-6.8-6.7-13.6-13.5-20.5-20.3c-2.7-2.6-5.3-5.3-8-7.9l20-19.8L65,359.6l5.7,5.8L85,379.7l11.8,11.8l-31.2,31.4
		L61.8,419.2z M93.5,460.2l-27.8,28.1c-1.3-1.3-2.6-2.6-3.9-3.9l-12.2-12.3l-12.3-12.2c-1.3-1.3-2.6-2.6-3.9-3.9l28.1-27.8l3.5-3.4
		l15.9,16l16,15.9L93.5,460.2z M122.8,480.4c-6.7-6.9-13.5-13.7-20.3-20.5l-3.7-3.8l31.4-31.3l11.8,11.8
		c6.7,6.6,13.4,13.3,20.1,19.9l-11.6,11.7l-19.8,20C128.1,485.7,125.5,483.1,122.8,480.4z M185.3,499.1l-22.2,22.6l-5-5.2l-5-5.2
		L143,501c-3.9-4.1-7.9-8.1-11.9-12.1l20-19.8l11.7-11.6c2.6,2.6,5.2,5.2,7.8,7.8l24.4,24.1L185.3,499.1z M207.6,476.5l-11.8,12
		l-24.1-24.4c-2.6-2.6-5.1-5.2-7.8-7.8l31.6-31.3c8,8,16,15.9,24.1,23.9l7.8,7.7L207.6,476.5z M264.6,484.7l-3.8,3.8l-3.8-3.8
		l-28-28.2l24.1-23.9c2.5-2.5,5.1-5.1,7.6-7.6c2.5,2.5,5.1,5.1,7.6,7.6l24.1,23.9L264.6,484.7z M350,464.1L326,488.5l-11.8-12
		l-19.8-20l7.8-7.7c8-7.9,16.1-15.9,24.1-23.9l31.6,31.3C355.2,458.9,352.6,461.5,350,464.1z M419.2,459.9
		c-6.7,6.8-13.5,13.6-20.3,20.5c-2.6,2.7-5.3,5.3-7.9,8l-19.8-20l-11.6-11.7c6.7-6.6,13.4-13.3,20.1-19.9l11.8-11.8l31.4,31.3
		L419.2,459.9z M460.3,428.2l28.1,27.8c-1.3,1.3-2.6,2.6-3.9,3.9l-12.3,12.2L460,484.4c-1.3,1.3-2.6,2.6-3.9,3.9l-27.8-28.1
		l-3.4-3.5l16-15.9l15.9-16L460.3,428.2z M480.4,398.9c-6.9,6.7-13.7,13.5-20.5,20.3l-3.8,3.7l-31.2-31.4l11.8-11.8l14.2-14.3
		l5.7-5.8l11.7,11.6l20,19.8C485.8,393.6,483.1,396.2,480.4,398.9z M499.1,336.4l22.6,22.2l-5.2,5l-5.2,5l-10.3,10
		c-4.1,3.9-8.1,7.9-12.1,11.9l-19.8-20l-11.6-11.7l0.7-0.7l7.1-7.2l24.1-24.4L499.1,336.4z M476.5,314.1l12,11.8L464.1,350l-7.2,7.1
		l-0.7,0.6l-31.3-31.6l5.6-5.7l18.3-18.4l7.7-7.8L476.5,314.1z M484.7,257.1l3.8,3.8l-3.8,3.8l-28.3,28l-23.9-24.1
		c-2.5-2.6-5.1-5.1-7.6-7.6l7.6-7.6l23.9-24.1L484.7,257.1z M464.1,171.7l24.4,24.1l-12,11.8l-20,19.8l-7.7-7.8
		c-7.9-8-15.9-16.1-23.9-24.1l31.3-31.6C458.9,166.5,461.5,169.1,464.1,171.7z M460,102.5c6.8,6.7,13.6,13.5,20.5,20.3
		c2.6,2.6,5.3,5.3,8,7.9l-20,19.8l-11.7,11.6c-6.6-6.7-13.3-13.4-19.9-20.1L425,130.2l31.3-31.4L460,102.5z M460.3,93.4l-3.5,3.4
		l-15.9-16l-16-15.9l3.4-3.5l27.8-28.1c1.3,1.3,2.6,2.6,3.9,3.9l12.2,12.3l12.3,12.2c1.3,1.3,2.6,2.6,3.9,3.9L460.3,93.4z"/>
	<path class="st0" d="M504.7,17c2.7,2.7,5.5,5.4,8.3,8c2.8,2.6,5.7,5.2,8.6,7.6c-2.5-3-5-5.9-7.6-8.6c-2.6-2.8-5.3-5.6-8-8.3
		s-5.5-5.4-8.3-8c-2.8-2.6-5.7-5.2-8.7-7.6c2.5,3,5,5.9,7.6,8.7C499.3,11.5,502,14.2,504.7,17z"/>
	<path class="st0" d="M17,504.7c-2.7-2.7-5.5-5.4-8.3-8c-2.8-2.6-5.7-5.2-8.7-7.6c2.5,3,5,5.9,7.6,8.7c2.6,2.8,5.3,5.6,8,8.3
		c2.7,2.7,5.5,5.4,8.3,8c2.8,2.6,5.7,5.2,8.6,7.6c-2.5-3-5-5.9-7.6-8.6C22.4,510.2,19.7,507.4,17,504.7z"/>
</g>
</svg>
